<?xml version="1.0" encoding="utf-8"?>
<!-- Generator: Adobe Illustrator 22.0.1, SVG Export Plug-In . SVG Version: 6.00 Build 0)  -->
<svg version="1.1" id="Layer_1" xmlns="http://www.w3.org/2000/svg" xmlns:xlink="http://www.w3.org/1999/xlink" x="0px" y="0px"
	 viewBox="0 0 194 179.4" style="enable-background:new 0 0 194 179.4;" xml:space="preserve">
<style type="text/css">
	.st0{fill:#7C7E7A;}
</style>
<g>
	<path class="st0" d="M146.4,8.8c1.1,1.3,2,2.8,2.7,4.4c0.2-0.1,0.3-0.1,0.5-0.2c-0.7-1.4-1.6-2.8-2.5-4c-4-4.7-9.4-7.2-15.2-8.2
		C137.4,1.8,142.5,4.3,146.4,8.8z"/>
	<path class="st0" d="M114.9,1.5c0.2-0.1,0.5-0.1,0.7-0.2C115.4,1.4,115.2,1.5,114.9,1.5z"/>
	<path class="st0" d="M164.3,12c6.7,2,11.4,7.1,11.5,14.2c0.1,1.1,0.1,2.1,0,3.2c0.3,0.1,0.7,0.1,1,0.2c0.1-1,0.1-2,0-3
		c-0.2-7.3-4.9-12.5-11.7-14.5c-1.4-0.4-2.9-0.7-4.4-0.8C161.9,11.5,163.1,11.7,164.3,12z"/>
	<path class="st0" d="M117.7,1C117.7,1,117.7,1,117.7,1C117.7,1,117.7,1,117.7,1z"/>
	<path class="st0" d="M104.3,5.7c-2.4-1.7-5.1-3-7.9-4c2.8,1,5.4,2.3,7.7,4C104.2,5.7,104.3,5.7,104.3,5.7z"/>
	<path class="st0" d="M192.8,91.6c0.3-7.1-0.1-14.2-1.9-21.1c-1.1-4.4-3.5-8.5-6.2-12.2c0.2-0.3,0.4-0.7,0.5-1
		c2.4-5.3,3.4-10.9,1.6-16.5c-1.5-4.6-4.1-9.3-8.8-10.7c3.9,1.8,6.3,6,7.6,10.2c1.8,5.6,0.9,11.1-1.5,16.3c-0.1,0.3-0.3,0.7-0.5,1
		c2.7,3.6,5,7.6,6.1,12c1.8,6.8,2.1,13.8,1.9,20.8c-0.1,3.8,0.3,7.7-0.5,11.3c-0.4,3.3-1.4,6.6-2.6,9.7c-0.6,1.5-1.1,2.9-1.7,4.4
		c0.3,1,0.5,1.9,0.7,2.9c1.4,7.3,0,15.2-3.6,21.8c-1.8,3.3-3.7,7.2-6.5,9.9c-2.3,2.2-5.2,4.2-8.1,5.5c-1.1,0.5-2.2,0.9-3.3,1.2
		c-3,6.9-10.6,12.6-17.4,14c-5.8,1.2-11.9,1.2-17.1-2.1c-0.7-0.4-1.3-0.8-1.9-1.3c-5.3,4.9-12.1,8.6-19.4,9.2
		c-7.4,0.6-15.9-1.3-21.6-6.2c-0.8-0.7-1.7-1.5-2.4-2.4c-6.4,6.2-17.1,7.2-24.7,1.2c-2.4-1.9-4.7-4.2-6.3-6.9
		c-0.5-0.9-1-1.9-1.5-2.9c-0.9,0.3-1.7,0.6-2.6,0.8c-9,2.3-18.3-0.1-25.3-6.2c-2.7-2.4-4.4-5.4-5-8.5c-0.3-0.1-0.6-0.3-0.9-0.4
		c-3.4-1.7-6.3-3.7-8.5-6.8c-2.6-3.5-4.8-7.8-6.2-12c-1.4-4-2.9-8.1-3.7-12.3c-0.8-4.2-0.7-8.5-0.6-12.8c0.2-4,0.6-7.9,1.9-11.7
		c0.8-2.3,1.8-4.5,3-6.6c-1.9-4.2-3-9-3.1-13.5c-0.1-5.7,0.4-12,3.5-17c1.1-1.7,2.4-3.3,3.8-4.8c-2.8-5-2.1-11.6,0.3-16.6
		c3-6.1,8.3-9.8,14.8-11.4c1.2-0.3,2.2-0.5,3.3-0.6c-1.4,0.1-2.8,0.3-4.2,0.7c-6.6,1.6-12,5.4-15,11.6C6.8,36.8,6,43.4,8.9,48.5
		c-1.4,1.5-2.7,3.1-3.8,4.9c-3.1,5-3.7,11.4-3.6,17.2c0.1,4.6,1.2,9.4,3.2,13.7c-1.2,2.1-2.2,4.3-3,6.7c-1.3,3.9-1.7,7.8-1.9,11.9
		c-0.2,4.4-0.2,8.7,0.6,13s2.4,8.4,3.8,12.5c1.4,4.2,3.7,8.6,6.3,12.2c2.3,3.1,5.2,5.2,8.6,6.9c0.3,0.1,0.6,0.3,0.9,0.4
		c0.7,3.2,2.3,6.2,5.1,8.6c7.1,6.2,16.6,8.6,25.6,6.2c0.9-0.2,1.7-0.5,2.6-0.8c0.5,1,1,2.1,1.5,3c1.6,2.8,3.9,5,6.4,7
		c7.7,6.1,18.5,5,25.1-1.3c0.8,0.9,1.6,1.7,2.4,2.4c5.8,5,14.4,6.9,21.9,6.3c7.4-0.6,14.3-4.3,19.7-9.4c0.6,0.5,1.3,0.9,1.9,1.4
		c5.3,3.3,11.4,3.3,17.3,2.1c6.9-1.4,14.6-7.2,17.6-14.2c1.1-0.3,2.3-0.7,3.4-1.2c2.9-1.3,5.9-3.3,8.2-5.5c2.8-2.7,4.7-6.7,6.6-10.1
		c3.6-6.7,5.1-14.7,3.7-22.1c-0.2-1-0.4-1.9-0.7-2.9c0.6-1.5,1.1-3,1.7-4.5c1.2-3.2,2.2-6.5,2.7-9.8
		C193.2,99.3,192.7,95.4,192.8,91.6z"/>
	<path class="st0" d="M30.8,19.1c0.1-0.5,0.2-0.9,0.3-1.4c1.3-5.6,5-8.7,9.8-11.4c3.1-1.8,6.6-2.8,10.2-2.8c-3.8,0-7.6,0.9-11,2.8
		c-4.8,2.7-8.6,5.9-9.9,11.5c-0.1,0.5-0.2,0.9-0.3,1.4C30.2,19.1,30.5,19.1,30.8,19.1z"/>
	<path class="st0" d="M63.4,7.2C69.5,3,77,0.4,83.7,0c0.9-0.1,1.7-0.1,2.6-0.1c-0.9,0-1.9,0-2.8,0.1c-6.7,0.4-14.1,2.9-20.3,7.1
		C63.3,7.1,63.3,7.2,63.4,7.2z"/>
</g>
</svg>
